<?xml version="1.0" encoding="utf-8"?>
<!-- Generator: Adobe Illustrator 23.0.2, SVG Export Plug-In . SVG Version: 6.00 Build 0)  -->
<svg version="1.1" id="Layer_1" xmlns="http://www.w3.org/2000/svg" xmlns:xlink="http://www.w3.org/1999/xlink" x="0px" y="0px"
	 viewBox="0 0 1000 1000" style="enable-background:new 0 0 1000 1000;" xml:space="preserve">
<style type="text/css">
	.st0{fill:#094E70;}
	.st1{fill:#C8C4BC;}
	.st2{fill:none;}
	.st3{fill:#E7E2D8;}
	.st4{fill:#FFFFFF;}
	.st5{clip-path:url(#SVGID_2_);}
	.st6{fill:#777570;}
	.st7{fill:#959189;}
	.st8{fill:#FF9673;}
	.st9{fill:#FFBC8A;}
	.st10{fill:#FFD2B3;}
	.st11{fill:url(#SVGID_3_);}
	.st12{fill:url(#SVGID_4_);}
</style>
<g>
	<rect x="-0.18" class="st0" width="999.22" height="999.22"/>
	<g>
		<g>
			<g>
				<g>
					<g>
						<g>
							<path class="st1" d="M731.29,708.55l-23.24-27.26c25.95-22.13,38.32-43.62,36.73-63.86c-2.45-31.41-37.39-53.19-37.74-53.4
								l18.56-30.65c2.08,1.26,50.83,31.23,54.89,80.98C783.14,646.79,766.58,678.47,731.29,708.55z"/>
						</g>
						<g>
							<path class="st2" d="M716.35,548.72c0,0,2.92,1.76,7.3,5.1"/>
							<g>
								<path class="st3" d="M753.78,689.01l-29.71-25.9c3.39-3.9,6.42-7.89,8.98-11.86l33.14,21.35
									C762.59,678.16,758.41,683.69,753.78,689.01z M776.12,653.49l-36.64-14.52c1.66-4.18,2.76-8.35,3.29-12.41l39.09,5.11
									C780.91,638.95,778.97,646.28,776.12,653.49z M742.63,614.38c-0.59-3.99-1.78-8.05-3.53-12.09l36.15-15.68
									c3.11,7.17,5.25,14.54,6.37,21.89L742.63,614.38z M732.29,590.45c-2.64-3.74-5.79-7.49-9.36-11.09l28.06-27.68
									c5.06,5.13,9.61,10.53,13.49,16.03L732.29,590.45z"/>
							</g>
							<path class="st2" d="M726.37,688.97c-2.12,1.97-4.36,3.96-6.7,5.96"/>
						</g>
					</g>
					<g>
						<path class="st4" d="M501.24,631.6c0,0-367.45,30.2-367.45,213.99v154.35h731.28V845.59
							C865.07,661.8,501.24,631.6,501.24,631.6z"/>
					</g>
					<g>
						<path class="st3" d="M501.24,667.43c0,0-367.45,30.2-367.45,213.99v118.51h731.28V881.43
							C865.07,697.64,501.24,667.43,501.24,667.43z"/>
					</g>
					<path class="st1" d="M667.16,599.2H332.94l-17.92,71.65c68.53,147.24,300.27,147.24,368.81,0L667.16,599.2z"/>
					<g>
						<g>
							<path class="st3" d="M259.26,335.21h-35.59c-13.07,0-23.67,10.6-23.67,23.67v76.92c0,13.07,10.6,23.67,23.67,23.67h35.59
								V335.21z"/>
							<path class="st3" d="M775.19,335.21H739.6v124.26h35.59c13.07,0,23.67-10.6,23.67-23.67v-76.92
								C798.86,345.81,788.26,335.21,775.19,335.21z"/>
						</g>
						<g>
							<path class="st1" d="M259.26,371.05h-35.59c-13.07,0-23.67,10.6-23.67,23.67v41.08c0,13.07,10.6,23.67,23.67,23.67h35.59
								V371.05z"/>
							<path class="st1" d="M775.19,371.05H739.6v88.42h35.59c13.07,0,23.67-10.6,23.67-23.67v-41.08
								C798.86,381.64,788.26,371.05,775.19,371.05z"/>
						</g>
						<ellipse class="st3" cx="499.43" cy="397.34" rx="269.8" ry="297.81"/>
						<g>
							<defs>
								<path id="SVGID_1_" d="M730.37,379.73c0-139.98-461.89-139.98-461.89,0s103.4,253.46,230.95,253.46
									S730.37,519.71,730.37,379.73z"/>
							</defs>
							<use xlink:href="#SVGID_1_"  style="overflow:visible;fill:#02808F;"/>
							<clipPath id="SVGID_2_">
								<use xlink:href="#SVGID_1_"  style="overflow:visible;"/>
							</clipPath>
							<g class="st5">
								<g>
									<ellipse class="st6" cx="499.43" cy="355.79" rx="199.85" ry="221.21"/>
								</g>
								<g>
									<path class="st7" d="M699.28,355.79c0-122.17-44.14,6.7-199.85,6.7s-199.85-128.88-199.85-6.7S389.06,577,499.43,577
										S699.28,477.96,699.28,355.79z"/>
								</g>
								<g>
									<g>
										<path class="st8" d="M696.78,402.19c-35.18,0-52.66,90.77-34.16,90.77S715.28,402.19,696.78,402.19z"/>
									</g>
									<g>
										<path class="st8" d="M302.08,402.19c35.18,0,52.66,90.77,34.16,90.77C317.73,492.96,283.57,402.19,302.08,402.19z"/>
									</g>
								</g>
								<g>
									<path class="st9" d="M678.02,402.99c0-118.17-68-213.96-178.6-213.96s-178.6,95.79-178.6,213.96
										s101.12,264.79,178.6,264.79S678.02,521.15,678.02,402.99z"/>
								</g>
								<g>
									<path class="st4" d="M444.01,543.29c0,0,15.87,37.01,54.88,37.01s54.88-37.01,54.88-37.01H444.01z"/>
								</g>
								<g>
									<rect x="486.67" y="516.55" class="st8" width="25.52" height="9.29"/>
								</g>
								<g>
									<rect x="505.58" y="444.36" class="st8" width="6.81" height="81.47"/>
								</g>
								<g>
									<rect x="486.67" y="508.41" class="st10" width="18.91" height="8.13"/>
								</g>
								<g>
									<path class="st6" d="M643.12,233.17c0,0-101.83,151.09-313.55,64.72c0,0,23.58-131.76,177.59-131.76
										S643.12,233.17,643.12,233.17z"/>
								</g>
								<g>
									<path class="st6" d="M598.54,401.91c0-7.58-41.98-13.72-49.56-13.72c-7.58,0-13.72,6.14-13.72,13.72"/>
								</g>
								<g>
									<path class="st6" d="M466.74,401.91c0-7.58-6.14-13.72-13.72-13.72c-7.58,0-49.56,6.14-49.56,13.72"/>
								</g>
							</g>
						</g>
						<circle class="st6" cx="567.17" cy="437.78" r="10.49"/>
						<circle class="st6" cx="435.1" cy="437.78" r="10.49"/>
						
							<ellipse transform="matrix(0.4332 -0.9013 0.9013 0.4332 195.5435 633.4198)" class="st4" cx="601.36" cy="161.25" rx="19.66" ry="57.79"/>
					</g>
					<g>
						<rect x="575.95" y="870.48" class="st1" width="130.64" height="104.14"/>
					</g>
					<g>
						<rect x="575.95" y="833.52" class="st4" width="130.64" height="36.95"/>
					</g>
				</g>
				<path class="st3" d="M268.48,379.73c0,139.98,103.4,253.46,230.95,253.46c127.55,0,230.95-113.48,230.95-253.46
					C730.37,239.75,268.48,239.75,268.48,379.73z M499.43,608.44c-101.84,0-202.32-100.87-202.32-212.64s404.64-111.77,404.64,0
					S601.27,608.44,499.43,608.44z"/>
			</g>
			<g>
				<g>
					<g>
						<g>
							<g>
								<path class="st1" d="M731.29,707.12l-23.24-27.26c25.95-22.13,38.32-43.62,36.73-63.86c-2.45-31.41-37.39-53.19-37.74-53.4
									l18.56-30.65c2.08,1.26,50.83,31.23,54.89,80.97C783.14,645.35,766.58,677.04,731.29,707.12z"/>
							</g>
							<g>
								<path class="st2" d="M716.35,547.29c0,0,2.92,1.76,7.3,5.1"/>
								<g>
									<path class="st3" d="M753.78,687.57l-29.71-25.9c3.39-3.9,6.42-7.89,8.98-11.86l33.14,21.35
										C762.59,676.72,758.41,682.25,753.78,687.57z M776.12,652.05l-36.64-14.52c1.66-4.18,2.76-8.35,3.29-12.41l39.09,5.11
										C780.91,637.51,778.97,644.84,776.12,652.05z M742.63,612.95c-0.59-3.99-1.78-8.05-3.53-12.09l36.15-15.68
										c3.11,7.17,5.25,14.54,6.37,21.89L742.63,612.95z M732.29,589.01c-2.64-3.74-5.79-7.49-9.36-11.09l28.06-27.68
										c5.06,5.13,9.61,10.53,13.49,16.03L732.29,589.01z"/>
								</g>
								<path class="st2" d="M726.37,687.53c-2.12,1.97-4.36,3.96-6.7,5.96"/>
							</g>
						</g>
						<g>
							<path class="st4" d="M501.24,630.17c0,0-367.45,30.2-367.45,213.99v154.35h731.28V844.16
								C865.07,660.37,501.24,630.17,501.24,630.17z"/>
						</g>
						<g>
							<path class="st3" d="M501.24,701.83c0,0-367.45-5.63-367.45,178.16v118.51h731.28V879.99
								C865.07,696.2,501.24,701.83,501.24,701.83z"/>
						</g>
						<path class="st1" d="M667.16,597.77H332.94l-17.92,71.65c68.53,147.24,300.27,147.24,368.81,0L667.16,597.77z"/>
						<g>
							<g>
								<path class="st3" d="M259.26,333.78h-35.59c-13.07,0-23.67,10.6-23.67,23.67v76.92c0,13.07,10.6,23.67,23.67,23.67h35.59
									V333.78z"/>
								<path class="st3" d="M775.19,333.78H739.6v124.25h35.59c13.07,0,23.67-10.6,23.67-23.67v-76.92
									C798.86,344.38,788.26,333.78,775.19,333.78z"/>
							</g>
							<g>
								<path class="st1" d="M259.26,369.61h-35.59c-13.07,0-23.67,10.6-23.67,23.67v41.08c0,13.07,10.6,23.67,23.67,23.67h35.59
									V369.61z"/>
								<path class="st1" d="M775.19,369.61H739.6v88.42h35.59c13.07,0,23.67-10.6,23.67-23.67v-41.08
									C798.86,380.21,788.26,369.61,775.19,369.61z"/>
							</g>
							<ellipse class="st3" cx="499.43" cy="395.91" rx="269.8" ry="297.81"/>
							
								<ellipse transform="matrix(0.4332 -0.9013 0.9013 0.4332 196.836 632.6069)" class="st4" cx="601.36" cy="159.81" rx="19.66" ry="57.79"/>
						</g>
						<g>
							<rect x="575.95" y="849.04" class="st1" width="130.64" height="104.14"/>
							<rect x="282.17" y="866.79" class="st1" width="60.12" height="47.92"/>
							<rect x="372.88" y="866.79" class="st1" width="60.12" height="47.92"/>
						</g>
						<g>
							<rect x="575.95" y="812.09" class="st4" width="130.64" height="36.95"/>
							<rect x="282.17" y="849.79" class="st4" width="60.12" height="17"/>
							<rect x="372.88" y="849.79" class="st4" width="60.12" height="17"/>
						</g>
					</g>
					<linearGradient id="SVGID_3_" gradientUnits="userSpaceOnUse" x1="499.4289" y1="293.4675" x2="499.4289" y2="667.6812">
						<stop  offset="0" style="stop-color:#02808F"/>
						<stop  offset="1" style="stop-color:#02C299"/>
					</linearGradient>
					<path class="st11" d="M730.37,378.3c0-139.98-461.89-139.98-461.89,0s103.4,253.46,230.95,253.46S730.37,518.28,730.37,378.3z"
						/>
					<radialGradient id="SVGID_4_" cx="664.9397" cy="352.8118" r="175.2753" gradientUnits="userSpaceOnUse">
						<stop  offset="0" style="stop-color:#02C299"/>
						<stop  offset="1" style="stop-color:#FFFFFF;stop-opacity:0"/>
					</radialGradient>
					<path class="st12" d="M708.67,383.57c0-59.32-94.11-90.13-191.84-92.41c-29.32-0.69-58.97,1.2-86.51,5.65
						c-71.57,11.57,181.3,316.93,252.35,196.11C701.08,461.6,708.67,423.29,708.67,383.57z"/>
					
						<ellipse transform="matrix(0.4332 -0.9013 0.9013 0.4332 47.0996 791.1935)" class="st4" cx="652.58" cy="358.15" rx="21.89" ry="33.04"/>
					
						<ellipse transform="matrix(0.4332 -0.9013 0.9013 0.4332 28.1845 824.686)" class="st4" cx="669.75" cy="389.94" rx="11.23" ry="16.95"/>
				</g>
			</g>
		</g>
	</g>
</g>
</svg>
