<svg id="Layer_1" data-name="Layer 1" xmlns="http://www.w3.org/2000/svg" viewBox="0 0 704 158"><defs><style>.cls-1{fill:#6adc91;}.cls-2{fill:#fff;}</style></defs><title>logo-white-greenpin</title><path class="cls-1" d="M65.13,31.93a31.84,31.84,0,0,1,22.39,8.75,29.55,29.55,0,0,1,6.7,9.85,33.58,33.58,0,0,1,2.51,13c0,7.93-3.66,17-10.89,27.07-6.54,9.08-14.67,17.06-20.06,22.34l-.65.64-.65-.64C59.1,107.66,51,99.68,44.42,90.6c-7.23-10-10.89-19.14-10.89-27.07a33.39,33.39,0,0,1,2.51-13,29.5,29.5,0,0,1,6.7-9.85,31.84,31.84,0,0,1,22.39-8.75m0-8.75C43,23.18,24.78,39.65,24.78,63.53c0,25.94,29,50.72,37.62,59.7a3.73,3.73,0,0,0,5.46,0c8.63-9,37.62-33.76,37.62-59.7,0-23.88-18.18-40.35-40.35-40.35Z"/><path class="cls-1" d="M50.78,78.47a4,4,0,0,1,0-7.92l14.42,0V49.89a4,4,0,1,1,7.92,0V74.46a4,4,0,0,1-4,4l-18.37,0Z"/><path class="cls-2" d="M154.7,67.17a28.06,28.06,0,0,0-8.32-1.41A11.27,11.27,0,0,0,140.67,67a4.17,4.17,0,0,0-2.12,3.86,4.57,4.57,0,0,0,2.66,4.18,42.77,42.77,0,0,0,8.42,3.1,81.67,81.67,0,0,1,10,3.64,18.7,18.7,0,0,1,6.79,5.33,14.25,14.25,0,0,1,2.88,9.29q0,8.48-6.52,13T146.37,114a41.71,41.71,0,0,1-13.15-2.12,30.85,30.85,0,0,1-10.87-6L127.24,96a28.58,28.58,0,0,0,9.35,5.27,31.23,31.23,0,0,0,10.33,1.9,12.35,12.35,0,0,0,6.25-1.36,4.42,4.42,0,0,0,2.34-4.08,4.94,4.94,0,0,0-2.72-4.57,48.33,48.33,0,0,0-8.8-3.37,76.33,76.33,0,0,1-9.57-3.42A17.31,17.31,0,0,1,128,81.24a14,14,0,0,1-2.72-9q0-8.58,6.25-13.1t15.71-4.51a40.31,40.31,0,0,1,11.36,1.63,35.33,35.33,0,0,1,9.95,4.57l-5.11,10.22A41.8,41.8,0,0,0,154.7,67.17Z"/><path class="cls-2" d="M230,58.64a25.29,25.29,0,0,1,9.67,10.49,33.87,33.87,0,0,1,3.42,15.54A33.34,33.34,0,0,1,239.75,100a24.88,24.88,0,0,1-9.57,10.33,27.5,27.5,0,0,1-14.35,3.7,25,25,0,0,1-11.52-2.55,21.59,21.59,0,0,1-8.26-7.45v30.54H181.92V55.32h14.13v9.57a21,21,0,0,1,8.1-7.45,24.7,24.7,0,0,1,11.47-2.55A27.47,27.47,0,0,1,230,58.64Zm-3.55,38.82a18,18,0,0,0,4.57-12.66q0-7.71-4.57-12.61a16.67,16.67,0,0,0-23.59,0q-4.56,4.89-4.57,12.61t4.57,12.72a15.46,15.46,0,0,0,11.85,4.89A15.24,15.24,0,0,0,226.48,97.46Z"/><path class="cls-2" d="M289.76,113.47V106.4a19,19,0,0,1-7.83,5.76,28.91,28.91,0,0,1-11,2,23.4,23.4,0,0,1-10.71-2.34,17.14,17.14,0,0,1-7.12-6.47,17.45,17.45,0,0,1-2.5-9.24q0-8.14,5.76-12.77t16.3-4.73h17V77.05a9.75,9.75,0,0,0-3.37-7.93q-3.37-2.82-9.78-2.83-8.26,0-17.28,5.43l-5.11-9.78a64.44,64.44,0,0,1,12.45-5.49,45.75,45.75,0,0,1,13.1-1.68q11.31,0,17.55,5.43t6.36,15.22l.11,38H289.76Zm-5-13.09q4.35-2.88,4.89-7.12V88H275q-5.66,0-8.32,1.68c-1.78,1.12-2.66,3-2.66,5.49a7.07,7.07,0,0,0,2.77,5.87,11.91,11.91,0,0,0,7.55,2.17A18.4,18.4,0,0,0,284.76,100.38Z"/><path class="cls-2" d="M344.32,67.28a14.87,14.87,0,0,0-11.47,4.78q-4.39,4.78-4.4,12.39,0,7.83,4.4,12.61a14.85,14.85,0,0,0,11.47,4.78q10.44,0,15.65-6.85l8.8,7.28a25.71,25.71,0,0,1-10.33,8.7,34.37,34.37,0,0,1-14.89,3,30.93,30.93,0,0,1-15.27-3.7A25.93,25.93,0,0,1,317.9,99.93a31.31,31.31,0,0,1-3.7-15.38A31.41,31.41,0,0,1,318,69a26.3,26.3,0,0,1,10.43-10.43,31.31,31.31,0,0,1,15.38-3.7,34.57,34.57,0,0,1,14.18,2.77,25.67,25.67,0,0,1,10.16,7.88l-8.59,8.15A19.62,19.62,0,0,0,344.32,67.28Z"/><path class="cls-2" d="M423.94,62.82q7,7.93,7,22.28c0,1.89,0,3.3-.11,4.24H387.91a16.2,16.2,0,0,0,16.64,13.26,22.14,22.14,0,0,0,8.53-1.68,20.7,20.7,0,0,0,7.12-4.84l7.61,7.93a29.41,29.41,0,0,1-10.6,7.39A35.65,35.65,0,0,1,403.35,114a32.3,32.3,0,0,1-15.71-3.7,25.77,25.77,0,0,1-10.49-10.38,31.31,31.31,0,0,1-3.7-15.38,31.17,31.17,0,0,1,3.75-15.43,26.59,26.59,0,0,1,10.49-10.49A31,31,0,0,1,403,54.88Q416.93,54.9,423.94,62.82ZM418,79.89a14.14,14.14,0,0,0-4.24-10.22q-4-3.81-10.65-3.8a15,15,0,0,0-10.38,3.75,16.54,16.54,0,0,0-5.16,10.27Z"/><path class="cls-2" d="M492.72,60.81q5.76,6,5.76,16.36v36.3H484.24V81.3q0-6.09-3.48-9.62t-9.46-3.53q-7.07.1-11.14,4.78a17.53,17.53,0,0,0-4.08,12v28.59H442V55.32h14.13V66.19Q462.05,55,477,54.78,487,54.78,492.72,60.81Z"/><path class="cls-2" d="M555.71,58.58A26.69,26.69,0,0,1,566.47,69a30.23,30.23,0,0,1,3.86,15.38,30.73,30.73,0,0,1-3.86,15.54,26.62,26.62,0,0,1-10.76,10.43,33.26,33.26,0,0,1-15.92,3.7,33.72,33.72,0,0,1-16.09-3.7,26.58,26.58,0,0,1-10.82-10.43A30.73,30.73,0,0,1,509,84.34,30.23,30.23,0,0,1,512.88,69,26.59,26.59,0,0,1,523.7,58.58a33.84,33.84,0,0,1,16.09-3.7A33.37,33.37,0,0,1,555.71,58.58ZM527.83,71.84q-4.56,4.89-4.57,12.72t4.57,12.72a15.61,15.61,0,0,0,12,4.89,15.34,15.34,0,0,0,11.74-4.89q4.56-4.89,4.57-12.72t-4.57-12.72A15.34,15.34,0,0,0,539.79,67,15.6,15.6,0,0,0,527.83,71.84Z"/><path class="cls-2" d="M574.16,55.43l13.47-.11,9.86,39.43,13.8-39.43h14.24l14,39.43,9.53-39.43h13.14l-15.61,58.15H632.15l-13.91-41-13.8,41H590Z"/><path class="cls-2" d="M674,95.94a9.58,9.58,0,0,1,3.39,3.42A9.47,9.47,0,0,1,674,112.2a9.16,9.16,0,0,1-4.76,1.29,9,9,0,0,1-4.71-1.26,9.37,9.37,0,0,1-3.37-3.42A9.45,9.45,0,0,1,664.57,96a9.05,9.05,0,0,1,4.73-1.29A8.8,8.8,0,0,1,674,95.94Zm-8.31,2a7.19,7.19,0,0,0-3.5,6.17,7,7,0,0,0,3.48,6.12,7.2,7.2,0,0,0,7.2,0,7.12,7.12,0,0,0,2.57-2.6,7.15,7.15,0,0,0,0-7.12,7,7,0,0,0-2.57-2.57,7.16,7.16,0,0,0-7.18,0Zm5,3.89a2.51,2.51,0,0,0-1.18-.31,2.38,2.38,0,0,0-1.77.72,2.54,2.54,0,0,0,1.77,4.35,2.93,2.93,0,0,0,1.16-.28,3.29,3.29,0,0,0,1.08-.77l1.36,1.49a5.11,5.11,0,0,1-1.72,1.21,5,5,0,0,1-4.43-.15,4.47,4.47,0,0,1-1.72-1.65,4.5,4.5,0,0,1,1.77-6.33,5.27,5.27,0,0,1,2.47-.59,4.91,4.91,0,0,1,2,.41,4.45,4.45,0,0,1,1.65,1.13l-1.36,1.62A3.4,3.4,0,0,0,670.7,101.83Z"/></svg>