<?xml version="1.0" encoding="utf-8"?>
<!-- Generator: Adobe Illustrator 23.0.1, SVG Export Plug-In . SVG Version: 6.00 Build 0)  -->
<svg version="1.1" id="Layer_1" xmlns="http://www.w3.org/2000/svg" xmlns:xlink="http://www.w3.org/1999/xlink" x="0px" y="0px"
	 viewBox="0 0 128 143" style="enable-background:new 0 0 128 143;" xml:space="preserve">
<style type="text/css">
	.st0{fill:#6ADC91;}
</style>
<g>
	<g>
		<g>
			<path class="st0" d="M64,29.63c8.63,0,16.58,3.11,22.39,8.75c2.88,2.79,5.13,6.11,6.7,9.85c1.66,3.98,2.51,8.35,2.51,13
				c0,7.93-3.66,17.04-10.89,27.07c-6.54,9.08-14.67,17.06-20.06,22.34c-0.22,0.22-0.44,0.43-0.65,0.64
				c-0.21-0.21-0.43-0.42-0.65-0.64c-5.38-5.28-13.52-13.26-20.06-22.34C36.07,78.27,32.4,69.16,32.4,61.23
				c0-4.65,0.84-9.02,2.51-13c1.56-3.74,3.82-7.05,6.7-9.85C47.42,32.74,55.37,29.63,64,29.63 M64,20.88
				c-22.17,0-40.35,16.47-40.35,40.35c0,25.94,28.99,50.72,37.62,59.7c0.76,0.79,1.75,1.19,2.73,1.19s1.97-0.4,2.73-1.19
				c8.63-8.98,37.62-33.76,37.62-59.7C104.35,37.35,86.17,20.88,64,20.88L64,20.88z"/>
			<g>
				<path class="st0" d="M49.66,76.17c-2.18,0-3.96-1.77-3.96-3.95c-0.01-2.19,1.76-3.97,3.95-3.97l14.42-0.04V47.59
					c0-2.19,1.77-3.96,3.96-3.96s3.96,1.77,3.96,3.96v24.57c0,2.18-1.77,3.96-3.95,3.96l-18.37,0.05
					C49.67,76.17,49.66,76.17,49.66,76.17z"/>
			</g>
		</g>
	</g>
</g>
</svg>
